G04 #@! TF.GenerationSoftware,KiCad,Pcbnew,7.0.1*
G04 #@! TF.CreationDate,2023-05-13T12:57:32+02:00*
G04 #@! TF.ProjectId,tutorial,7475746f-7269-4616-9c2e-6b696361645f,v1.0.0*
G04 #@! TF.SameCoordinates,Original*
G04 #@! TF.FileFunction,Profile,NP*
%FSLAX46Y46*%
G04 Gerber Fmt 4.6, Leading zero omitted, Abs format (unit mm)*
G04 Created by KiCad (PCBNEW 7.0.1) date 2023-05-13 12:57:32*
%MOMM*%
%LPD*%
G01*
G04 APERTURE LIST*
G04 #@! TA.AperFunction,Profile*
%ADD10C,0.150000*%
G04 #@! TD*
G04 APERTURE END LIST*
D10*
X286272812Y-81779961D02*
G75*
G03*
X287083383Y-82509012I965888J258761D01*
G01*
X266497842Y-77525685D02*
G75*
G03*
X267722640Y-78232770I965958J258885D01*
G01*
X147868345Y-73824161D02*
G75*
G03*
X146643573Y-74531285I-258945J-965739D01*
G01*
X231017463Y-88067926D02*
G75*
G03*
X230310372Y-89292636I258937J-965974D01*
G01*
X313478953Y-114694267D02*
X311426430Y-137290945D01*
X181553149Y-91067817D02*
G75*
G03*
X182519059Y-92326615I965951J-258783D01*
G01*
X144616499Y-78232737D02*
G75*
G03*
X145841222Y-77525658I258801J965937D01*
G01*
X306254853Y-79282059D02*
X287543488Y-82581370D01*
X98871250Y-114430145D02*
X104925794Y-80093186D01*
X256907453Y-139298756D02*
X224393840Y-158070718D01*
X146643572Y-74531285D02*
X145841222Y-77525658D01*
X182028795Y-89292651D02*
G75*
G03*
X181321671Y-88067884I-965895J258851D01*
G01*
X307413331Y-80093198D02*
G75*
G03*
X306254853Y-79282060I-984831J-173702D01*
G01*
X223893791Y-158204692D02*
X188445330Y-158204700D01*
X181321671Y-88067884D02*
X165866873Y-83926808D01*
X124631374Y-82552415D02*
X106084272Y-79282056D01*
X246377038Y-79707698D02*
X247179377Y-82702052D01*
X283177456Y-74091652D02*
X267722640Y-78232770D01*
X287083383Y-82509013D02*
X287543488Y-82581370D01*
X154949849Y-139164925D02*
X101890437Y-138200304D01*
X313478940Y-114694266D02*
G75*
G03*
X313467854Y-114430166I-996240J90466D01*
G01*
X223893791Y-158204717D02*
G75*
G03*
X224393840Y-158070718I109J999617D01*
G01*
X182519059Y-92326615D02*
X229820088Y-92326635D01*
X165962168Y-79707719D02*
G75*
G03*
X165255004Y-78482928I-965968J258819D01*
G01*
X129161681Y-74091635D02*
G75*
G03*
X127936951Y-74798759I-258781J-965965D01*
G01*
X230310372Y-89292636D02*
X230786003Y-91067806D01*
X100912710Y-137290934D02*
G75*
G03*
X101890438Y-138200329I995990J90534D01*
G01*
X187945333Y-158070687D02*
G75*
G03*
X188445330Y-158204700I500067J865987D01*
G01*
X100912719Y-137290933D02*
X98860190Y-114694265D01*
X229820088Y-92326571D02*
G75*
G03*
X230786003Y-91067806I12J999971D01*
G01*
X165159774Y-82702043D02*
G75*
G03*
X165866877Y-83926782I966026J-258757D01*
G01*
X124631376Y-82552405D02*
G75*
G03*
X124960343Y-82555452I173624J985205D01*
G01*
X284402184Y-74798782D02*
X286272807Y-81779962D01*
X247084118Y-78482834D02*
G75*
G03*
X246377038Y-79707698I258882J-965966D01*
G01*
X257389300Y-139164918D02*
G75*
G03*
X256907453Y-139298756I18300J-1000182D01*
G01*
X155431684Y-139298758D02*
G75*
G03*
X154949849Y-139164926I-499884J-865442D01*
G01*
X265695516Y-74531289D02*
G75*
G03*
X264470805Y-73824180I-965916J-258811D01*
G01*
X125898052Y-82408018D02*
X127936951Y-74798759D01*
X181553123Y-91067810D02*
X182028780Y-89292647D01*
X266497913Y-77525666D02*
X265695551Y-74531280D01*
X310448700Y-138200317D02*
X257389300Y-139164937D01*
X106084287Y-79281972D02*
G75*
G03*
X104925794Y-80093186I-173587J-984928D01*
G01*
X124960343Y-82555453D02*
X125898052Y-82408018D01*
X187945324Y-158070703D02*
X155431686Y-139298755D01*
X98871238Y-114430143D02*
G75*
G03*
X98860190Y-114694265I986562J-173557D01*
G01*
X284402113Y-74798801D02*
G75*
G03*
X283177456Y-74091653I-965813J-258599D01*
G01*
X165255004Y-78482927D02*
X147868336Y-73824196D01*
X307413344Y-80093196D02*
X313467855Y-114430166D01*
X246472275Y-83926869D02*
G75*
G03*
X247179376Y-82702052I-258875J965969D01*
G01*
X310448700Y-138200343D02*
G75*
G03*
X311426410Y-137290949I-18200J999843D01*
G01*
X246472255Y-83926796D02*
X231017458Y-88067906D01*
X144616493Y-78232761D02*
X129161673Y-74091664D01*
X264470796Y-73824192D02*
X247084142Y-78482925D01*
X165159760Y-82702039D02*
X165962083Y-79707696D01*
M02*
