M48
; DRILL file {KiCad 7.0.1} date Sat May 13 12:57:36 2023
; FORMAT={-:-/ absolute / metric / decimal}
; #@! TF.CreationDate,2023-05-13T12:57:36+02:00
; #@! TF.GenerationSoftware,Kicad,Pcbnew,7.0.1
; #@! TF.FileFunction,Plated,1,2,PTH
FMAT,2
METRIC
; #@! TA.AperFunction,Plated,PTH,ViaDrill
T1C0.400
; #@! TA.AperFunction,Plated,PTH,ComponentDrill
T2C0.813
; #@! TA.AperFunction,Plated,PTH,ComponentDrill
T3C1.092
%
G90
G05
T1
X102.276Y-136.966
X107.465Y-111.634
X109.259Y-133.68
X109.676Y-117.466
X110.73Y-94.846
X128.062Y-106.446
X132.462Y-90.025
X146.769Y-106.178
X151.072Y-89.732
X162.739Y-115.737
X164.595Y-138.629
X167.139Y-99.317
X178.676Y-144.266
X181.065Y-147.732
X200.684Y-106.491
X202.756Y-151.079
X203.286Y-108.968
X204.256Y-150.079
X204.486Y-96.268
X205.686Y-103.888
X205.756Y-149.179
X206.986Y-101.391
X207.256Y-148.151
X208.304Y-101.391
X209.41Y-149.151
X209.41Y-150.151
X209.41Y-148.151
X209.41Y-151.151
X209.586Y-93.791
X210.844Y-96.291
X211.786Y-101.348
X212.707Y-150.192
X213.707Y-149.292
X215.407Y-149.192
X216.307Y-150.292
X217.318Y-151.149
X218.294Y-152.049
X219.294Y-152.949
X228.373Y-149.851
X236.376Y-140.666
X241.745Y-100.272
X244.558Y-140.142
X246.145Y-116.693
X246.967Y-122.066
X248.376Y-135.466
X257.812Y-90.687
X262.212Y-107.108
X275.276Y-100.666
X276.519Y-90.954
X280.919Y-107.375
X298.173Y-95.429
X299.59Y-133.728
X301.125Y-112.171
X305.876Y-80.866
X307.676Y-97.166
X309.876Y-136.666
T2
X198.264Y-93.774
X213.564Y-93.774
T3
X198.307Y-96.268
X198.307Y-98.808
X198.307Y-101.348
X198.307Y-103.888
X198.307Y-106.428
X198.307Y-108.968
X198.307Y-111.508
X198.307Y-114.048
X198.307Y-116.588
X198.307Y-119.128
X198.307Y-121.668
X198.307Y-124.208
X200.684Y-130.754
X203.224Y-130.754
X205.764Y-130.754
X208.304Y-130.754
X210.844Y-130.754
X213.547Y-96.268
X213.547Y-98.808
X213.547Y-101.348
X213.547Y-103.888
X213.547Y-106.428
X213.547Y-108.968
X213.547Y-111.508
X213.547Y-114.048
X213.547Y-116.588
X213.547Y-119.128
X213.547Y-121.668
X213.547Y-124.208
T0
M30
