G04 #@! TF.GenerationSoftware,KiCad,Pcbnew,7.0.1*
G04 #@! TF.CreationDate,2023-05-13T12:57:32+02:00*
G04 #@! TF.ProjectId,tutorial,7475746f-7269-4616-9c2e-6b696361645f,v1.0.0*
G04 #@! TF.SameCoordinates,Original*
G04 #@! TF.FileFunction,Soldermask,Top*
G04 #@! TF.FilePolarity,Negative*
%FSLAX46Y46*%
G04 Gerber Fmt 4.6, Leading zero omitted, Abs format (unit mm)*
G04 Created by KiCad (PCBNEW 7.0.1) date 2023-05-13 12:57:32*
%MOMM*%
%LPD*%
G01*
G04 APERTURE LIST*
%ADD10C,1.900000*%
%ADD11C,3.150000*%
%ADD12C,3.500000*%
%ADD13C,1.497000*%
%ADD14C,1.852600*%
%ADD15C,1.100000*%
G04 APERTURE END LIST*
D10*
X239068461Y-137110300D03*
D11*
X241559706Y-129438684D03*
D12*
X244053154Y-134785900D03*
D11*
X246978744Y-129228839D03*
D10*
X249037847Y-132461500D03*
X160457061Y-109912053D03*
D11*
X167296685Y-105636596D03*
D12*
X165769653Y-111335558D03*
D11*
X171582795Y-108959135D03*
D10*
X171082245Y-112759063D03*
D13*
X198263838Y-93774010D03*
D10*
X276030230Y-103441577D03*
D11*
X279815790Y-96319110D03*
D12*
X281342822Y-102018072D03*
D11*
X285188939Y-97053459D03*
D10*
X286655414Y-100594567D03*
X293624816Y-91155608D03*
D11*
X298016735Y-84390177D03*
D12*
X299041259Y-90200543D03*
D11*
X303305435Y-85590033D03*
D10*
X304457702Y-89245478D03*
X252923676Y-86753371D03*
D11*
X256709236Y-79630904D03*
D12*
X258236268Y-85329866D03*
D11*
X262082385Y-80365253D03*
D10*
X263548860Y-83906361D03*
X296576855Y-107897337D03*
D11*
X300968774Y-101131906D03*
D12*
X301993298Y-106942272D03*
D11*
X306257474Y-102331762D03*
D10*
X307409741Y-105987207D03*
X105493837Y-128684014D03*
D11*
X110993837Y-122784014D03*
D12*
X110993837Y-128684014D03*
D11*
X115993837Y-124884014D03*
D10*
X116493837Y-128684014D03*
X130083638Y-84173847D03*
D11*
X136923262Y-79898390D03*
D12*
X135396230Y-85597352D03*
D11*
X141209372Y-83220929D03*
D10*
X140708822Y-87020857D03*
X257323580Y-103174119D03*
D11*
X261109140Y-96051652D03*
D12*
X262636172Y-101750614D03*
D11*
X266482289Y-96786001D03*
D10*
X267948764Y-100327109D03*
X104929415Y-105987208D03*
D11*
X111370382Y-101131907D03*
D12*
X110345858Y-106942273D03*
D11*
X115929760Y-104068244D03*
D10*
X115762301Y-107897338D03*
X271630286Y-87020846D03*
D11*
X275415846Y-79898379D03*
D12*
X276942878Y-85597341D03*
D11*
X280788995Y-80632728D03*
D10*
X282255470Y-84173836D03*
X236856968Y-96338334D03*
D11*
X240642528Y-89215867D03*
D12*
X242169560Y-94914829D03*
D11*
X246015677Y-89950216D03*
D10*
X247482152Y-93491324D03*
X222398959Y-147841658D03*
D11*
X223520194Y-139853991D03*
D12*
X226904295Y-144686988D03*
D11*
X228820465Y-138706328D03*
D10*
X231409631Y-141532318D03*
X295845293Y-128683999D03*
D11*
X301345293Y-122783999D03*
D12*
X301345293Y-128683999D03*
D11*
X306345293Y-124883999D03*
D10*
X306845293Y-128683999D03*
D14*
X200683845Y-130754008D03*
X203223845Y-130754008D03*
X205763845Y-130754008D03*
X208303845Y-130754008D03*
X210843845Y-130754008D03*
D10*
X144390363Y-100327105D03*
D11*
X151229987Y-96051648D03*
D12*
X149702955Y-101750610D03*
D11*
X155516097Y-99374187D03*
D10*
X155015547Y-103174115D03*
X241256903Y-112759066D03*
D11*
X245042463Y-105636599D03*
D12*
X246569495Y-111335561D03*
D11*
X250415612Y-106370948D03*
D10*
X251882087Y-109912056D03*
D13*
X213563855Y-93774009D03*
D10*
X148790284Y-83906350D03*
D11*
X155629908Y-79630893D03*
D12*
X154102876Y-85329855D03*
D11*
X159916018Y-82953432D03*
D10*
X159415468Y-86753360D03*
X107881444Y-89245475D03*
D11*
X114322411Y-84390174D03*
D12*
X113297887Y-90200540D03*
D11*
X118881789Y-87326511D03*
D10*
X118714330Y-91155605D03*
X163301289Y-132461486D03*
D11*
X170779430Y-129438670D03*
D12*
X168285982Y-134785886D03*
D11*
X174423470Y-133455008D03*
D10*
X173270675Y-137110286D03*
X125683735Y-100594582D03*
D11*
X132523359Y-96319125D03*
D12*
X130996327Y-102018087D03*
D11*
X136809469Y-99641664D03*
D10*
X136308919Y-103441592D03*
X180929497Y-141532311D03*
D11*
X188818934Y-139853984D03*
D12*
X185434833Y-144686981D03*
D11*
X191710184Y-144442085D03*
D10*
X189940169Y-147841651D03*
X164856968Y-93491336D03*
D11*
X171696592Y-89215879D03*
D12*
X170169560Y-94914841D03*
D11*
X175982702Y-92538418D03*
D10*
X175482152Y-96338346D03*
D14*
X213546825Y-96267992D03*
X213546825Y-98807992D03*
X213546825Y-101347992D03*
X213546825Y-103887992D03*
X213546825Y-106427992D03*
X213546825Y-108967992D03*
X213546825Y-111507992D03*
X213546825Y-114047992D03*
X213546825Y-116587992D03*
X213546825Y-119127992D03*
X213546825Y-121667992D03*
X213546825Y-124207992D03*
X198306825Y-124207992D03*
X198306825Y-121667992D03*
X198306825Y-119127992D03*
X198306825Y-116587992D03*
X198306825Y-114047992D03*
X198306825Y-111507992D03*
X198306825Y-108967992D03*
X198306825Y-106427992D03*
X198306825Y-103887992D03*
X198306825Y-101347992D03*
X198306825Y-98807992D03*
X198306825Y-96267992D03*
D15*
X204263854Y-156174010D03*
X207263854Y-156174010D03*
M02*
