G04 #@! TF.GenerationSoftware,KiCad,Pcbnew,7.0.1*
G04 #@! TF.CreationDate,2023-05-13T12:57:31+02:00*
G04 #@! TF.ProjectId,tutorial,7475746f-7269-4616-9c2e-6b696361645f,v1.0.0*
G04 #@! TF.SameCoordinates,Original*
G04 #@! TF.FileFunction,Paste,Bot*
G04 #@! TF.FilePolarity,Positive*
%FSLAX46Y46*%
G04 Gerber Fmt 4.6, Leading zero omitted, Abs format (unit mm)*
G04 Created by KiCad (PCBNEW 7.0.1) date 2023-05-13 12:57:31*
%MOMM*%
%LPD*%
G01*
G04 APERTURE LIST*
G04 Aperture macros list*
%AMRoundRect*
0 Rectangle with rounded corners*
0 $1 Rounding radius*
0 $2 $3 $4 $5 $6 $7 $8 $9 X,Y pos of 4 corners*
0 Add a 4 corners polygon primitive as box body*
4,1,4,$2,$3,$4,$5,$6,$7,$8,$9,$2,$3,0*
0 Add four circle primitives for the rounded corners*
1,1,$1+$1,$2,$3*
1,1,$1+$1,$4,$5*
1,1,$1+$1,$6,$7*
1,1,$1+$1,$8,$9*
0 Add four rect primitives between the rounded corners*
20,1,$1+$1,$2,$3,$4,$5,0*
20,1,$1+$1,$4,$5,$6,$7,0*
20,1,$1+$1,$6,$7,$8,$9,0*
20,1,$1+$1,$8,$9,$2,$3,0*%
G04 Aperture macros list end*
%ADD10RoundRect,0.250000X-0.506347X-1.339492X1.351584X-0.473124X0.506347X1.339492X-1.351584X0.473124X0*%
%ADD11RoundRect,0.250000X-1.248893X-0.700636X0.731255X-1.231215X1.248893X0.700636X-0.731255X1.231215X0*%
%ADD12RoundRect,0.250000X-0.731255X-1.231215X1.248893X-0.700636X0.731255X1.231215X-1.248893X0.700636X0*%
%ADD13RoundRect,0.250000X-0.835780X-1.162797X1.183076X-0.806818X0.835780X1.162797X-1.183076X0.806818X0*%
%ADD14RoundRect,0.250000X-1.025000X-1.000000X1.025000X-1.000000X1.025000X1.000000X-1.025000X1.000000X0*%
%ADD15RoundRect,0.250000X-1.183076X-0.806818X0.835780X-1.162797X1.183076X0.806818X-0.835780X1.162797X0*%
%ADD16RoundRect,0.250000X-0.266054X-1.407068X1.413207X-0.231236X0.266054X1.407068X-1.413207X0.231236X0*%
%ADD17RoundRect,0.250000X-1.351584X-0.473124X0.506347X-1.339492X1.351584X0.473124X-0.506347X1.339492X0*%
%ADD18RoundRect,0.250000X-1.413207X-0.231236X0.266054X-1.407068X1.413207X0.231236X-0.266054X1.407068X0*%
%ADD19R,0.900000X0.900000*%
%ADD20R,0.900000X1.250000*%
%ADD21R,0.900000X1.700000*%
G04 APERTURE END LIST*
D10*
X238345367Y-130827217D03*
X250150821Y-127749675D03*
D11*
X163941827Y-104634136D03*
X174963535Y-109865002D03*
D12*
X276409167Y-97128384D03*
X288569679Y-96147592D03*
D13*
X294552543Y-84899465D03*
X306752262Y-84982264D03*
D12*
X253302613Y-80440178D03*
X265463125Y-79459386D03*
D13*
X297504582Y-101641194D03*
X309704301Y-101723993D03*
D14*
X107493837Y-122684014D03*
X119493837Y-124884014D03*
D11*
X133568404Y-78895930D03*
X144590112Y-84126796D03*
D12*
X257702517Y-96860926D03*
X269863029Y-95880134D03*
D15*
X107940920Y-100425658D03*
X119376587Y-104676013D03*
D12*
X272009223Y-80707653D03*
X284169735Y-79726861D03*
X237235905Y-90025141D03*
X249396417Y-89044349D03*
D16*
X220595804Y-141779593D03*
X231687497Y-136698811D03*
D14*
X297845293Y-122683999D03*
X309845293Y-124883999D03*
D11*
X147875129Y-95049188D03*
X158896837Y-100280054D03*
D12*
X241635840Y-106445873D03*
X253796352Y-105465081D03*
D11*
X152275050Y-78628433D03*
X163296758Y-83859299D03*
D15*
X110892949Y-83683925D03*
X122328616Y-87934280D03*
D17*
X167649614Y-127868875D03*
X177595548Y-134934172D03*
D11*
X129168501Y-95316665D03*
X140190209Y-100547531D03*
D18*
X186009259Y-137764551D03*
X194577216Y-146449603D03*
D11*
X168341734Y-88213419D03*
X179363442Y-93444285D03*
D19*
X202063854Y-155074010D03*
X202063854Y-157274010D03*
X209463854Y-155074010D03*
X209463854Y-157274010D03*
D20*
X208013854Y-154099010D03*
X205013854Y-154099010D03*
X203513854Y-154099010D03*
D21*
X207463845Y-140674023D03*
X204063845Y-140674023D03*
M02*
