M48
; DRILL file {KiCad 7.0.1} date Sat May 13 12:57:36 2023
; FORMAT={-:-/ absolute / metric / decimal}
; #@! TF.CreationDate,2023-05-13T12:57:36+02:00
; #@! TF.GenerationSoftware,Kicad,Pcbnew,7.0.1
; #@! TF.FileFunction,NonPlated,1,2,NPTH
FMAT,2
METRIC
; #@! TA.AperFunction,NonPlated,NPTH,ComponentDrill
T1C0.900
; #@! TA.AperFunction,NonPlated,NPTH,ComponentDrill
T2C1.800
; #@! TA.AperFunction,NonPlated,NPTH,ComponentDrill
T3C3.050
; #@! TA.AperFunction,NonPlated,NPTH,ComponentDrill
T4C3.400
%
G90
G05
T1
X204.264Y-156.174
X207.264Y-156.174
T2
X104.929Y-105.987
X105.494Y-128.684
X107.881Y-89.245
X115.762Y-107.897
X116.494Y-128.684
X118.714Y-91.156
X125.684Y-100.595
X130.084Y-84.174
X136.309Y-103.442
X140.709Y-87.021
X144.39Y-100.327
X148.79Y-83.906
X155.016Y-103.174
X159.415Y-86.753
X160.457Y-109.912
X163.301Y-132.461
X164.857Y-93.491
X171.082Y-112.759
X173.271Y-137.11
X175.482Y-96.338
X180.929Y-141.532
X189.94Y-147.842
X222.399Y-147.842
X231.41Y-141.532
X236.857Y-96.338
X239.068Y-137.11
X241.257Y-112.759
X247.482Y-93.491
X249.038Y-132.462
X251.882Y-109.912
X252.924Y-86.753
X257.324Y-103.174
X263.549Y-83.906
X267.949Y-100.327
X271.63Y-87.021
X276.03Y-103.442
X282.255Y-84.174
X286.655Y-100.595
X293.625Y-91.156
X295.845Y-128.684
X296.577Y-107.897
X304.458Y-89.245
X306.845Y-128.684
X307.41Y-105.987
T3
X110.994Y-122.784
X111.37Y-101.132
X114.322Y-84.39
X115.93Y-104.068
X115.994Y-124.884
X118.882Y-87.327
X132.523Y-96.319
X136.809Y-99.642
X136.923Y-79.898
X141.209Y-83.221
X151.23Y-96.052
X155.516Y-99.374
X155.63Y-79.631
X159.916Y-82.953
X167.297Y-105.637
X170.779Y-129.439
X171.583Y-108.959
X171.697Y-89.216
X174.423Y-133.455
X175.983Y-92.538
X188.819Y-139.854
X191.71Y-144.442
X223.52Y-139.854
X228.82Y-138.706
X240.643Y-89.216
X241.56Y-129.439
X245.042Y-105.637
X246.016Y-89.95
X246.979Y-129.229
X250.416Y-106.371
X256.709Y-79.631
X261.109Y-96.052
X262.082Y-80.365
X266.482Y-96.786
X275.416Y-79.898
X279.816Y-96.319
X280.789Y-80.633
X285.189Y-97.053
X298.017Y-84.39
X300.969Y-101.132
X301.345Y-122.784
X303.305Y-85.59
X306.257Y-102.332
X306.345Y-124.884
T4
X110.346Y-106.942
X110.994Y-128.684
X113.298Y-90.201
X130.996Y-102.018
X135.396Y-85.597
X149.703Y-101.751
X154.103Y-85.33
X165.77Y-111.336
X168.286Y-134.786
X170.17Y-94.915
X185.435Y-144.687
X226.904Y-144.687
X242.17Y-94.915
X244.053Y-134.786
X246.569Y-111.336
X258.236Y-85.33
X262.636Y-101.751
X276.943Y-85.597
X281.343Y-102.018
X299.041Y-90.201
X301.345Y-128.684
X301.993Y-106.942
T0
M30
